<svg xmlns="http://www.w3.org/2000/svg" width="500" height="500" version="1.0" viewBox="0 0 375 375"><defs><clipPath id="a"><path d="M102 182h64v104.96h-64Zm0 0"/></clipPath><clipPath id="b"><path d="M134 7.61h47V78h-47Zm0 0"/></clipPath><clipPath id="c"><path d="M87.207 94H130v63H87.207Zm0 0"/></clipPath><clipPath id="d"><path d="M114 83h160.848v284.09H114Zm0 0"/></clipPath><clipPath id="e"><path d="M232 61.02h16V81h-16Zm0 0"/></clipPath></defs><path fill="#fff" d="M200.766 194.86s17.14 15.761 36.605 17.87c7.875-14.062 11.219-27.125 11.219-27.125s-24.34-4.433-34.606-14.156c-6.297 11.742-13.218 23.41-13.218 23.41m0 0"/><path fill="#141415" d="M237.371 213.832q-.057.001-.121-.004c-19.598-2.125-36.52-17.504-37.23-18.16a1.094 1.094 0 0 1-.2-1.371c.067-.117 6.98-11.781 13.196-23.367a1.103 1.103 0 0 1 1.726-.282c9.906 9.383 33.805 13.829 34.047 13.872.3.054.566.234.73.488.165.258.215.574.141.87-.035.13-3.472 13.364-11.328 27.392a1.1 1.1 0 0 1-.96.562m-35.191-19.2c3.273 2.81 18.12 14.833 34.586 16.919 6.172-11.192 9.468-21.711 10.445-25.094-4.895-.996-23.344-5.172-32.918-13.254-5.117 9.473-10.523 18.723-12.113 21.43m0 0"/><path fill="#141415" d="m209.648 195.68 7.051-13.063 1.938 1.047-7.051 13.063Zm3.508 2.726 3.942-7.879 1.968.985-3.941 7.883Zm10.879 4.794 7.254-15.348 1.992.941-7.254 15.348Zm0 0"/><path fill="#fff" d="m274.02 141.563 12.546-17.004s-19.078 1.761-20.53-32.246l-21.153 11.613s-1.656 34.527 29.137 37.637m0 0"/><path fill="#141415" d="M274.02 142.664q-.056.001-.11-.004c-16.469-1.664-23.793-12.172-27.035-20.691-3.477-9.13-3.11-17.735-3.09-18.098a1.11 1.11 0 0 1 .57-.914l21.153-11.61a1.1 1.1 0 0 1 1.629.919c.55 12.93 3.855 22.394 9.554 27.37 4.84 4.227 9.727 3.829 9.774 3.825.43-.043.848.18 1.062.555.211.379.184.847-.074 1.195l-12.547 17.008a1.1 1.1 0 0 1-.886.445m-28.047-38.082c-.012 2.098.168 9.3 2.984 16.664 4.332 11.317 12.59 17.758 24.555 19.152l10.941-14.832c-2.195-.277-5.726-1.222-9.21-4.27-5.981-5.226-9.415-14.362-10.216-27.175Zm0 0"/><path fill="#141415" d="m248.8 109.809 10.993-6.223 1.086 1.918-10.992 6.223Zm3.055 7.914 7.672-4.977 1.2 1.848-7.676 4.976Zm13.516 16.933 9.54-9.328 1.538 1.574-9.539 9.332Zm0 0"/><path fill="#fff" d="M194.441 54.727s14.516 26.336 51.844 24.054c6.844-5.394 14.723-18.664 14.723-18.664s-18.871 2.696-40.024-15.14c-13.894 5.394-26.543 9.75-26.543 9.75m0 0"/><path fill="#141415" d="M241.816 80.02c-17.156 0-29.011-6.137-36.117-11.536-8.387-6.367-12.07-12.949-12.222-13.226a1.1 1.1 0 0 1-.063-.93 1.09 1.09 0 0 1 .668-.644c.125-.043 12.79-4.41 26.504-9.73.375-.15.8-.079 1.11.183 20.484 17.27 38.972 14.914 39.16 14.89a1.101 1.101 0 0 1 1.097 1.653c-.324.547-8.062 13.511-14.988 18.965-.176.14-.39.222-.613.234-1.551.098-3.063.14-4.536.14m-45.71-24.707c1.402 2.117 4.957 6.902 11.011 11.48 7.363 5.57 20.055 11.965 38.75 10.906 5.055-4.117 10.715-12.613 13.07-16.332-5.62.153-21.046-.93-38.16-15.125a855 855 0 0 1-24.672 9.07m0 0"/><path fill="#141415" d="m207.516 61.547-.848-2.031c.121-.051 12.312-5.153 15.867-8.309L224 52.852c-3.828 3.402-15.969 8.48-16.484 8.695m0 0"/><path fill="#fff" d="M103.145 215.594s-1.247 42.617 30.484 69.988c19.906-26.437 30.484-51.012 30.484-51.012s-20.843-8.71-23.953-50.703c-28.305 22.395-37.015 31.727-37.015 31.727m0 0"/><g clip-path="url(#a)"><path fill="#141415" d="M133.629 286.684c-.262 0-.52-.094-.719-.266-16.605-14.324-24.113-32.824-27.488-45.816-3.652-14.067-3.39-24.598-3.379-25.04a1.1 1.1 0 0 1 .297-.718c.355-.383 9.09-9.649 37.137-31.84.32-.254.753-.309 1.125-.145.375.164.628.52.656.926 1.578 21.309 7.84 33.715 12.812 40.367 5.364 7.176 10.418 9.38 10.47 9.403a1.11 1.11 0 0 1 .586 1.45c-.106.249-10.86 24.999-30.618 51.241a1.1 1.1 0 0 1-.762.434q-.058.005-.117.004m-29.387-70.637c-.008 2.094.145 11.832 3.332 24.07 3.235 12.434 10.352 30.031 25.887 43.856 16.996-22.797 27.094-44.203 29.219-48.891-1.84-1.023-5.938-3.727-10.258-9.453-5.031-6.676-11.32-18.914-13.192-39.621-23.945 19.027-33.292 28.304-34.988 30.039m0 0"/></g><path fill="#141415" d="M133.305 275.516c-12.305-11.11-18.23-25.961-21.04-36.461-3.03-11.36-3.167-19.973-3.171-20.336l2.203-.028c.004.344.691 34.614 23.484 55.188Zm-13.457-52.876 17.625-15.14 1.433 1.672-17.625 15.14Zm1.425 8.727 13.48-12.23 1.481 1.629L122.754 233Zm14.024 33.262-1.676-1.43c.14-.168 14.234-16.77 17.86-25.625l2.039.836c-3.758 9.18-17.633 25.528-18.223 26.219m0 0"/><path fill="#fff" d="M148.508 8.738s-26.336 35.668-3.735 67.399c5.809-1.867 12.473-13.809 34.75-17.793-8.414-7.715-13.64-17.86-2.214-44.617-13.664-3.536-28.801-4.989-28.801-4.989m0 0"/><g clip-path="url(#b)"><path fill="#141415" d="M144.773 77.238c-.347 0-.683-.168-.894-.46-11.934-16.75-10.27-34.56-6.774-46.548 3.774-12.921 10.243-21.773 10.516-22.144.23-.313.61-.477.992-.441.153.011 15.383 1.5 28.973 5.015.312.078.57.293.71.578a1.1 1.1 0 0 1 .028.922c-11.777 27.574-5.172 36.848 1.946 43.371a1.105 1.105 0 0 1-.551 1.899c-15.078 2.695-22.942 9.164-28.145 13.441-2.492 2.05-4.457 3.672-6.46 4.313a1.1 1.1 0 0 1-.34.054m4.262-67.336c-1.41 2.055-6.676 10.153-9.832 21.012-4.773 16.426-2.762 31.184 5.973 43.875 1.426-.676 3.035-2.004 5-3.617 5.133-4.227 12.777-10.512 27.058-13.504-8.246-8.395-11.316-19.469-1.437-43.188-11.52-2.859-23.86-4.27-26.762-4.578m0 0"/></g><path fill="#141415" d="M157.36 38.906c-6.895 0-15.786-1.32-16.274-1.394l.328-2.176c.152.02 15.406 2.285 21.043.95l.508 2.144c-1.45.343-3.43.476-5.606.476m-17.156 5.134 13.688-1.403.226 2.191-13.687 1.402Zm3.86 16.148-1.27-1.801c.332-.235 8.336-5.79 21.41-6.578l.133 2.203c-12.453.75-20.195 6.12-20.274 6.176m0 0"/><path fill="#fff" d="M88.422 118.078s7.566 20.32 17.316 37.535c9.953-9.953 22.602-21.152 22.602-21.152s-16.797-23.02-17.625-38.574c-14.102 11.097-22.293 22.191-22.293 22.191m0 0"/><g clip-path="url(#c)"><path fill="#141415" d="M105.738 156.715a1.11 1.11 0 0 1-.96-.559c-9.676-17.09-17.313-37.488-17.391-37.695a1.1 1.1 0 0 1 .148-1.04c.082-.109 8.442-11.339 22.496-22.398a1.1 1.1 0 0 1 1.137-.136c.375.168.625.531.644.941.805 15.047 17.25 37.754 17.418 37.985a1.1 1.1 0 0 1-.16 1.472c-.125.113-12.738 11.29-22.554 21.106a1.1 1.1 0 0 1-.778.324m-16.07-38.457c1.266 3.312 7.957 20.492 16.32 35.55 8.293-8.214 18.137-17.062 20.88-19.511-2.891-4.098-15.231-22.266-17.06-36.274-11.288 9.168-18.492 18.114-20.14 20.235m0 0"/></g><path fill="#141415" d="m95.242 122.914-1.719-1.379c.247-.305 6.102-7.55 13.211-12.258l1.22 1.84c-6.829 4.52-12.653 11.727-12.712 11.797m1.305 3.957-1.84-1.207c.16-.242 3.973-6.012 8.39-7.781l.821 2.047c-3.773 1.507-7.332 6.89-7.371 6.941m7.871 14.973-1.617-1.496c.27-.29 6.636-7.125 13.972-11.106l1.051 1.934c-7.02 3.812-13.34 10.601-13.406 10.668m0 0"/><path fill="#fff" d="M178.266 260.543s14.62 6.738 29.964 9.23c17.422-2.074 39.09-9.332 46.141-17.941-12.547-1.656-24.676-7.672-24.676-7.672s-21.879 15.348-51.43 16.383m0 0"/><path fill="#141415" d="M208.23 270.875q-.087-.002-.175-.016c-15.317-2.484-30.102-9.246-30.25-9.316a1.1 1.1 0 0 1-.621-1.219c.101-.5.535-.863 1.043-.883 28.89-1.011 50.62-16.03 50.835-16.183a1.11 1.11 0 0 1 1.122-.086c.12.062 12.12 5.957 24.332 7.57.398.051.734.317.882.688.145.37.079.793-.175 1.101-7.52 9.18-29.758 16.297-46.86 18.336q-.07.007-.133.008m-25.199-9.52c5.41 2.153 15.2 5.657 25.223 7.305 15.887-1.918 35.86-8.308 43.894-16.047-10.398-1.75-19.933-6.039-22.363-7.187-3.375 2.21-22.086 13.777-46.754 15.93m0 0"/><path fill="#fff" d="M146.07 137.906s12.598 13.223 37.95 17.11c19.91-11.664 31.73-27.22 33.75-47.903-5.133 2.489-17.262 3.578-28.305-.777-4.512 11.352-5.29 21.46-43.395 31.57m0 0"/><path fill="#141415" d="M184.02 156.117q-.082 0-.168-.012c-25.43-3.902-38.055-16.886-38.579-17.437a1.1 1.1 0 0 1-.261-1.059c.105-.375.402-.668.777-.765 34.488-9.153 37.785-17.969 41.606-28.176.332-.895.68-1.816 1.046-2.738a1.1 1.1 0 0 1 1.426-.621c10.946 4.316 22.836 3.035 27.422.812a1.11 1.11 0 0 1 1.11.086c.328.23.507.617.468 1.012-2 20.453-13.215 36.398-34.289 48.746a1.1 1.1 0 0 1-.558.152m-35.739-17.664c3.895 3.367 15.793 12.297 35.52 15.414 19.578-11.566 30.281-26.32 32.668-45.047-5.645 1.907-16.196 2.63-26.375-1.07q-.322.85-.637 1.688c-3.793 10.144-7.383 19.734-41.176 29.015m0 0"/><path fill="#141415" d="M185.863 148.793c-9.582-1.57-22.242-9-22.777-9.316l1.121-1.895c.125.074 12.844 7.535 22.012 9.04Zm6.437-7.406c-7.054-1.805-13.07-5.098-13.323-5.235l1.066-1.93c.059.032 6.031 3.298 12.805 5.028Zm0 0"/><g clip-path="url(#d)"><path fill="#545454" d="M151.07 242.86a9.31 9.31 0 0 0 7.465 3.73c.125 0 .25-.028.375-.031v106.254c0 7.957 6.457 14.406 14.41 14.406 7.961 0 14.414-6.45 14.414-14.406V247.598h5.403v105.214c0 7.958 6.453 14.407 14.41 14.407s14.41-6.45 14.41-14.406V165.848l45.89-16.016a9.322 9.322 0 0 0 2.645-16.168l-61.46-47.734c-4.067-3.16-9.927-2.422-13.087 1.644a9 9 0 0 0-.632.946c13.62 2.324 24.027 14.207 24.027 28.484 0 .18-.012.355-.016.531l26.188 20.34-34.364 11.992h-43.23c-.313 0-.625.02-.93.051a9.28 9.28 0 0 0-5.398 1.855l-42.985 32.29a9.327 9.327 0 0 0-1.859 13.054Zm7.84-65.75v45.128l-21.652-28.86Zm0 0"/></g><path fill="#545454" d="M190.434 90.777c-14.485 0-26.223 11.743-26.223 26.227s11.738 26.223 26.223 26.223 26.222-11.739 26.222-26.223-11.738-26.227-26.222-26.227m16.004 35.703c-14.266-3.937-24.81 3.805-24.915 3.883l-2.109-2.793c.484-.363 11.977-8.875 27.957-4.46ZM202.8 75.676c-2.558-1.055-4.886-1.133-6.917-.23-3.145 1.39-4.34 4.62-4.39 4.757a1.162 1.162 0 0 0 .82 1.527 1.167 1.167 0 0 0 1.37-.73c.008-.023.93-2.457 3.16-3.43 1.427-.625 3.134-.539 5.071.262a1.164 1.164 0 0 0 .887-2.156m0 0"/><path fill="#545454" d="M187.953 77.957a1.166 1.166 0 0 0 1.527-.613c.016-.04 1.684-3.832 5.415-5.274 2.44-.941 5.273-.691 8.417.75a1.165 1.165 0 0 0 .97-2.12c-3.747-1.712-7.196-1.981-10.255-.794-4.652 1.809-6.609 6.332-6.691 6.528-.25.59.027 1.27.617 1.523m-31.262 13.297c-4.226-9.563-21.113-13.61-22.652-4.68-1.45 8.41 8.238 2.57 22.652 4.68m11.684-2.871c3.191-7.645-3.691-19.555-9.664-15.57-5.625 3.753 3.016 6.136 9.664 15.57m-26.23 17.762c.093 5.91 5.94.69 16.023.28-4.106-5.972-16.121-6.558-16.023-.28m89.738-18.903c1.726.645 3.199-.27 3.707-1.629.562-1.504-.055-2.992-1.817-3.648-1.617-.606-3.156.16-3.691 1.59-.55 1.468.004 3.015 1.8 3.687m0 0"/><g clip-path="url(#e)"><path fill="#545454" d="M236.992 78.941c.88-2.347 1.547-2.683 4.328-3.402 3.38-.871 5.13-2.312 6.16-5.066.946-2.532.344-6.188-4.648-8.055-2.535-.945-5.5-1.176-7.27-1.04l-1.988 5.325 3.895 1.79.793-2.13c.195-.515.488-.742.843-.691.532.031 1.122.25 1.747.484 1.43.535 2.085 1.574 1.539 3.043-.715 1.91-1.996 2.102-4.016 2.684-2.809.793-4.305 1.449-5.164 4.64l-.73 2.743 3.855 1.437Zm0 0"/></g><path fill="#545454" d="M252.742 84.828c.88-2.351 1.547-2.687 4.324-3.406 3.383-.871 5.133-2.309 6.16-5.063.95-2.535.348-6.191-4.644-8.054-2.535-.95-5.504-1.18-7.27-1.043l-1.988 5.324 3.89 1.789.798-2.129c.191-.516.484-.742.843-.691.532.03 1.118.254 1.743.484 1.433.535 2.09 1.578 1.543 3.047-.715 1.906-2 2.098-4.016 2.684-2.809.793-4.309 1.445-5.168 4.64l-.73 2.738 3.855 1.442Zm-6.914 4.613c-.547 1.47.004 3.012 1.805 3.684 1.726.645 3.195-.27 3.703-1.625.562-1.508-.055-2.992-1.816-3.652-1.614-.602-3.157.16-3.692 1.593m0 0"/></svg>