<svg xmlns="http://www.w3.org/2000/svg" xmlns:xlink="http://www.w3.org/1999/xlink" width="500" zoomAndPan="magnify" viewBox="0 0 375 374.999991" height="500" preserveAspectRatio="xMidYMid meet" version="1.0"><defs><clipPath id="e4eabb6a5c"><path d="M 113 145.78125 L 157 145.78125 L 157 202 L 113 202 Z M 113 145.78125 " clip-rule="nonzero"/></clipPath><clipPath id="c50eb1826d"><path d="M 212 145.78125 L 257 145.78125 L 257 202 L 212 202 Z M 212 145.78125 " clip-rule="nonzero"/></clipPath><clipPath id="d22322c357"><path d="M 112.5 210 L 128 210 L 128 229 L 112.5 229 Z M 112.5 210 " clip-rule="nonzero"/></clipPath><clipPath id="8904aa3177"><path d="M 130.230469 209.625 L 147.835938 209.625 L 147.835938 229.03125 L 130.230469 229.03125 Z M 130.230469 209.625 " clip-rule="nonzero"/></clipPath><clipPath id="7b7a293515"><path d="M 185.277344 209.625 L 203 209.625 L 203 229.03125 L 185.277344 229.03125 Z M 185.277344 209.625 " clip-rule="nonzero"/></clipPath><clipPath id="c66d06981d"><path d="M 205.675781 210.183594 L 221 210.183594 L 221 229.03125 L 205.675781 229.03125 Z M 205.675781 210.183594 " clip-rule="nonzero"/></clipPath><clipPath id="2cd889f885"><path d="M 116.820312 153.800781 L 148.695312 153.800781 L 148.695312 158.710938 L 116.820312 158.710938 Z M 160.78125 169.304688 L 160.96875 169.304688 L 160.96875 174.476562 L 160.78125 174.476562 Z M 135.226562 194.175781 L 160.96875 194.175781 L 160.96875 197.921875 L 135.226562 197.921875 Z M 135.226562 194.175781 " clip-rule="nonzero"/></clipPath><clipPath id="b8298af6d1"><path d="M 189.417969 158.710938 L 210.148438 158.710938 L 210.148438 163.101562 L 189.417969 163.101562 Z M 166.558594 169.304688 L 210.148438 169.304688 L 210.148438 174.476562 L 166.558594 174.476562 Z M 166.558594 169.304688 " clip-rule="nonzero"/></clipPath><clipPath id="87ca92f01c"><path d="M 222.25 153.800781 L 245.558594 153.800781 L 245.558594 158.710938 L 222.25 158.710938 Z M 238.375 174.476562 L 258.765625 174.476562 L 258.765625 177.316406 L 238.375 177.316406 Z M 217.121094 195.660156 L 260.445312 195.660156 L 260.445312 200.183594 L 217.121094 200.183594 Z M 217.121094 195.660156 " clip-rule="nonzero"/></clipPath><clipPath id="45a65aa1ef"><path d="M 125.773438 214.785156 L 131.347656 214.785156 L 131.347656 218.019531 L 125.773438 218.019531 Z M 125.773438 214.785156 " clip-rule="nonzero"/></clipPath><clipPath id="56714a6540"><path d="M 134.144531 214.785156 L 142.996094 214.785156 L 142.996094 218.019531 L 134.144531 218.019531 Z M 134.144531 214.785156 " clip-rule="nonzero"/></clipPath><clipPath id="df7333375d"><path d="M 155.6875 224.085938 L 167.394531 224.085938 L 167.394531 226.671875 L 155.6875 226.671875 Z M 155.6875 224.085938 " clip-rule="nonzero"/></clipPath><clipPath id="61823cde97"><path d="M 176.335938 224.085938 L 185.082031 224.085938 L 185.082031 226.671875 L 176.335938 226.671875 Z M 176.335938 224.085938 " clip-rule="nonzero"/></clipPath><clipPath id="b4f484073c"><path d="M 198.679688 218.019531 L 207 218.019531 L 207 220.726562 L 198.679688 220.726562 Z M 198.679688 218.019531 " clip-rule="nonzero"/></clipPath><clipPath id="610e5444e9"><path d="M 209.308594 218.019531 L 224.679688 218.019531 L 224.679688 220.726562 L 209.308594 220.726562 Z M 209.308594 218.019531 " clip-rule="nonzero"/></clipPath><clipPath id="e15e5d1dd9"><path d="M 234.550781 227.1875 L 243.398438 227.1875 L 243.398438 228.863281 L 234.550781 228.863281 Z M 234.550781 227.1875 " clip-rule="nonzero"/></clipPath><clipPath id="46a112fdf4"><path d="M 254.78125 216.59375 L 262.5 216.59375 L 262.5 219.445312 L 254.78125 219.445312 Z M 247.03125 227.1875 L 261.746094 227.1875 L 261.746094 228.863281 L 247.03125 228.863281 Z M 247.03125 227.1875 " clip-rule="nonzero"/></clipPath><clipPath id="3ef7ef9e88"><path d="M 2.476562 14 L 372.226562 14 L 372.226562 366 L 2.476562 366 Z M 2.476562 14 " clip-rule="nonzero"/></clipPath></defs><g clip-path="url(#e4eabb6a5c)"><path fill="#0a0a0a" d="M 137.371094 201.558594 L 150.445312 201.558594 L 150.445312 197.925781 L 137.34375 197.925781 Z M 150.445312 180.3125 L 150.445312 167.429688 L 138.898438 167.429688 L 137.457031 180.3125 L 126.929688 180.3125 L 136.726562 158.710938 L 123.46875 158.710938 L 113.089844 181.351562 L 113.089844 189.808594 L 137.285156 189.808594 L 137.316406 194.175781 L 150.445312 194.175781 L 150.445312 189.808594 L 156.898438 189.808594 L 156.898438 180.3125 Z M 129.394531 145.78125 L 125.71875 153.800781 L 138.957031 153.800781 L 140.765625 149.804688 L 129.394531 145.78125 " fill-opacity="1" fill-rule="nonzero"/></g><path fill="#0a0a0a" d="M 204.945312 163.101562 L 191.597656 163.101562 C 191.921875 164.785156 192.140625 166.851562 192.265625 169.304688 L 205.921875 169.304688 C 205.730469 167.082031 205.402344 165.015625 204.945312 163.101562 Z M 200.574219 153.347656 C 196.863281 148.46875 191.503906 146.027344 184.488281 146.027344 C 177.46875 146.027344 172.105469 148.46875 168.398438 153.347656 C 165.417969 157.277344 163.632812 162.59375 163.050781 169.304688 L 176.710938 169.304688 C 176.839844 166.839844 177.066406 164.765625 177.398438 163.085938 C 177.933594 160.351562 178.769531 158.390625 179.902344 157.214844 C 181.035156 156.03125 182.5625 155.441406 184.488281 155.441406 C 186.410156 155.441406 187.9375 156.003906 189.070312 157.132812 C 189.492188 157.546875 189.863281 158.074219 190.199219 158.710938 L 203.570312 158.710938 C 202.761719 156.703125 201.765625 154.914062 200.574219 153.347656 Z M 192.382812 174.472656 C 192.382812 179.339844 192.113281 183.148438 191.574219 185.90625 C 191.039062 188.667969 190.203125 190.625 189.070312 191.777344 C 187.9375 192.933594 186.410156 193.507812 184.488281 193.507812 C 182.5625 193.507812 181.035156 192.917969 179.902344 191.738281 C 178.769531 190.558594 177.933594 188.585938 177.398438 185.824219 C 176.859375 183.066406 176.589844 179.285156 176.589844 174.472656 L 162.835938 174.472656 C 162.839844 183.574219 164.695312 190.589844 168.398438 195.519531 C 172.105469 200.457031 177.46875 202.925781 184.488281 202.925781 C 191.503906 202.925781 196.863281 200.457031 200.574219 195.519531 C 204.277344 190.589844 206.128906 183.574219 206.136719 174.472656 L 192.382812 174.472656 " fill-opacity="1" fill-rule="nonzero"/><g clip-path="url(#c50eb1826d)"><path fill="#0a0a0a" d="M 228.882812 145.78125 L 225.210938 153.800781 L 238.453125 153.800781 L 240.261719 149.804688 Z M 236.855469 200.183594 L 236.867188 201.558594 L 249.941406 201.558594 L 249.941406 200.183594 Z M 249.941406 180.3125 L 249.941406 177.316406 L 237.289062 177.316406 L 236.949219 180.3125 L 226.425781 180.3125 L 236.222656 158.710938 L 222.964844 158.710938 L 212.585938 181.351562 L 212.585938 189.808594 L 236.78125 189.808594 L 236.824219 195.660156 L 249.941406 195.660156 L 249.941406 189.808594 L 256.394531 189.808594 L 256.394531 180.3125 Z M 238.394531 167.429688 L 237.605469 174.472656 L 249.941406 174.472656 L 249.941406 167.429688 L 238.394531 167.429688 " fill-opacity="1" fill-rule="nonzero"/></g><g clip-path="url(#d22322c357)"><path fill="#0a0a0a" d="M 123.308594 218.019531 C 123.328125 220.054688 123.527344 222.214844 123.917969 224.5 L 118.207031 210.292969 L 112.523438 210.292969 L 112.523438 228.59375 L 116.589844 228.59375 L 116.589844 221.886719 C 116.589844 220.425781 116.542969 219.164062 116.4375 218.097656 C 116.335938 217.03125 116.191406 215.800781 116.003906 214.414062 L 121.578125 228.59375 L 127.398438 228.59375 L 127.398438 218.019531 Z M 123.304688 210.292969 L 123.304688 214.785156 L 127.398438 214.785156 L 127.398438 210.292969 L 123.304688 210.292969 " fill-opacity="1" fill-rule="nonzero"/></g><g clip-path="url(#8904aa3177)"><path fill="#0a0a0a" d="M 145.519531 212.351562 C 143.988281 210.679688 141.847656 209.84375 139.097656 209.84375 C 137.296875 209.84375 135.746094 210.226562 134.449219 210.992188 C 133.144531 211.757812 132.148438 212.863281 131.453125 214.304688 C 131.375 214.464844 131.304688 214.625 131.238281 214.785156 L 136.011719 214.785156 C 136.058594 214.699219 136.109375 214.613281 136.160156 214.53125 C 136.800781 213.519531 137.78125 213.015625 139.097656 213.015625 C 140.417969 213.015625 141.402344 213.515625 142.050781 214.519531 C 142.703125 215.523438 143.023438 217.160156 143.023438 219.429688 C 143.023438 221.699219 142.707031 223.34375 142.066406 224.355469 C 141.425781 225.367188 140.4375 225.871094 139.097656 225.871094 C 137.800781 225.871094 136.824219 225.363281 136.171875 224.339844 C 135.523438 223.320312 135.199219 221.679688 135.199219 219.429688 C 135.199219 218.929688 135.214844 218.457031 135.25 218.019531 L 130.472656 218.019531 C 130.429688 218.472656 130.40625 218.941406 130.40625 219.429688 C 130.40625 221.457031 130.757812 223.1875 131.453125 224.621094 C 132.148438 226.054688 133.144531 227.152344 134.449219 227.90625 C 135.746094 228.664062 137.296875 229.042969 139.097656 229.042969 C 140.898438 229.042969 142.453125 228.660156 143.761719 227.890625 C 145.074219 227.125 146.074219 226.023438 146.773438 224.582031 C 147.46875 223.136719 147.820312 221.417969 147.820312 219.429688 C 147.820312 216.382812 147.050781 214.027344 145.519531 212.351562 " fill-opacity="1" fill-rule="nonzero"/></g><path fill="#0a0a0a" d="M 153.722656 226.671875 L 153.722656 228.59375 L 158.292969 228.59375 L 158.292969 226.671875 Z M 148.734375 210.292969 L 148.734375 213.621094 L 153.722656 213.621094 L 153.722656 224.089844 L 158.292969 224.089844 L 158.292969 213.621094 L 163.054688 213.621094 L 163.5 210.292969 L 148.734375 210.292969 " fill-opacity="1" fill-rule="nonzero"/><path fill="#0a0a0a" d="M 172.554688 226.671875 L 172.554688 228.59375 L 177.121094 228.59375 L 177.121094 226.671875 Z M 183.582031 213.382812 L 184.058594 210.292969 L 172.554688 210.292969 L 172.554688 224.089844 L 177.121094 224.089844 L 177.121094 221.332031 L 182.746094 221.332031 L 182.746094 218.242188 L 177.121094 218.242188 L 177.121094 213.382812 L 183.582031 213.382812 " fill-opacity="1" fill-rule="nonzero"/><g clip-path="url(#7b7a293515)"><path fill="#0a0a0a" d="M 198.109375 220.726562 C 198.007812 222.339844 197.703125 223.550781 197.191406 224.355469 C 196.550781 225.367188 195.558594 225.871094 194.222656 225.871094 C 192.925781 225.871094 191.949219 225.363281 191.296875 224.339844 C 190.648438 223.320312 190.324219 221.679688 190.324219 219.429688 C 190.324219 217.175781 190.644531 215.542969 191.289062 214.53125 C 191.929688 213.519531 192.90625 213.015625 194.222656 213.015625 C 195.542969 213.015625 196.527344 213.515625 197.175781 214.519531 C 197.683594 215.300781 197.992188 216.464844 198.101562 218.019531 L 202.882812 218.019531 C 202.679688 215.644531 201.929688 213.757812 200.644531 212.351562 C 199.113281 210.679688 196.972656 209.84375 194.222656 209.84375 C 192.425781 209.84375 190.871094 210.226562 189.574219 210.992188 C 188.273438 211.757812 187.273438 212.863281 186.578125 214.304688 C 185.882812 215.75 185.53125 217.457031 185.53125 219.429688 C 185.53125 221.457031 185.882812 223.1875 186.578125 224.621094 C 187.273438 226.054688 188.273438 227.152344 189.574219 227.90625 C 190.871094 228.664062 192.425781 229.042969 194.222656 229.042969 C 196.027344 229.042969 197.578125 228.660156 198.890625 227.890625 C 200.199219 227.125 201.203125 226.023438 201.898438 224.582031 C 202.4375 223.460938 202.769531 222.171875 202.890625 220.726562 L 198.109375 220.726562 " fill-opacity="1" fill-rule="nonzero"/></g><g clip-path="url(#c66d06981d)"><path fill="#0a0a0a" d="M 216.203125 220.726562 L 216.203125 222.332031 C 216.203125 223.515625 215.964844 224.390625 215.492188 224.960938 C 215.019531 225.535156 214.261719 225.820312 213.21875 225.820312 C 212.199219 225.820312 211.453125 225.535156 210.980469 224.960938 C 210.503906 224.390625 210.269531 223.515625 210.269531 222.332031 L 210.269531 220.726562 L 205.699219 220.726562 L 205.699219 222.519531 C 205.699219 224.507812 206.339844 226.09375 207.621094 227.269531 C 208.90625 228.453125 210.769531 229.042969 213.21875 229.042969 C 214.855469 229.042969 216.238281 228.757812 217.375 228.199219 C 218.503906 227.636719 219.355469 226.859375 219.921875 225.871094 C 220.484375 224.886719 220.769531 223.769531 220.769531 222.519531 L 220.769531 220.726562 Z M 216.203125 210.292969 L 216.203125 218.019531 L 220.769531 218.019531 L 220.769531 210.292969 Z M 205.699219 210.292969 L 205.699219 218.019531 L 210.269531 218.019531 L 210.269531 210.292969 L 205.699219 210.292969 " fill-opacity="1" fill-rule="nonzero"/></g><path fill="#0a0a0a" d="M 235.203125 210.292969 L 235.203125 217.683594 C 235.203125 219.816406 235.402344 222.085938 235.8125 224.5 L 230.101562 210.292969 L 224.421875 210.292969 L 224.421875 228.59375 L 228.488281 228.59375 L 228.488281 221.886719 C 228.488281 220.425781 228.433594 219.164062 228.332031 218.097656 C 228.230469 217.03125 228.089844 215.800781 227.902344 214.414062 L 232.921875 227.1875 L 239.296875 227.1875 L 239.296875 210.292969 L 235.203125 210.292969 " fill-opacity="1" fill-rule="nonzero"/><path fill="#0a0a0a" d="M 253.863281 219.445312 C 253.851562 221.679688 253.460938 223.238281 252.695312 224.117188 C 251.914062 225.007812 250.773438 225.449219 249.269531 225.449219 L 247.761719 225.449219 L 247.761719 213.4375 L 249.210938 213.4375 C 250.195312 213.4375 251.019531 213.597656 251.6875 213.925781 C 252.355469 214.25 252.890625 214.84375 253.277344 215.703125 C 253.398438 215.96875 253.5 216.261719 253.582031 216.59375 L 258.359375 216.59375 C 257.980469 214.601562 257.144531 213.148438 255.851562 212.234375 C 254.023438 210.941406 251.59375 210.292969 248.570312 210.292969 L 243.195312 210.292969 L 243.195312 227.1875 L 254.921875 227.1875 C 255.273438 226.988281 255.605469 226.761719 255.925781 226.519531 C 257.691406 225.148438 258.585938 222.789062 258.597656 219.445312 L 253.863281 219.445312 " fill-opacity="1" fill-rule="nonzero"/><g clip-path="url(#2cd889f885)"><path fill="#0a0a0a" d="M 154.328125 189.804688 L 154.328125 201.554688 L 141.253906 201.554688 L 141.171875 189.804688 L 116.976562 189.804688 L 116.976562 181.355469 L 133.273438 145.785156 L 144.652344 149.808594 L 130.8125 180.308594 L 141.339844 180.308594 L 142.785156 167.433594 L 154.328125 167.433594 L 154.328125 180.308594 L 160.78125 180.308594 L 160.78125 189.804688 L 154.328125 189.804688 " fill-opacity="1" fill-rule="nonzero"/></g><g clip-path="url(#b8298af6d1)"><path fill="#0a0a0a" d="M 183.789062 157.210938 C 182.65625 158.394531 181.820312 160.351562 181.28125 163.085938 C 180.746094 165.824219 180.476562 169.605469 180.476562 174.433594 C 180.476562 179.261719 180.746094 183.058594 181.28125 185.820312 C 181.820312 188.585938 182.65625 190.558594 183.789062 191.738281 C 184.917969 192.917969 186.445312 193.507812 188.371094 193.507812 C 190.292969 193.507812 191.824219 192.933594 192.957031 191.777344 C 194.085938 190.625 194.921875 188.667969 195.460938 185.902344 C 195.996094 183.140625 196.265625 179.316406 196.265625 174.433594 C 196.265625 169.550781 195.996094 165.730469 195.460938 162.964844 C 194.921875 160.203125 194.085938 158.257812 192.957031 157.132812 C 191.824219 156.003906 190.292969 155.441406 188.371094 155.441406 C 186.445312 155.441406 184.917969 156.03125 183.789062 157.210938 Z M 204.460938 153.347656 C 208.164062 158.230469 210.019531 165.257812 210.019531 174.433594 C 210.019531 183.554688 208.164062 190.582031 204.460938 195.519531 C 200.75 200.457031 195.386719 202.921875 188.371094 202.921875 C 181.351562 202.921875 175.988281 200.457031 172.285156 195.519531 C 168.574219 190.582031 166.722656 183.554688 166.722656 174.433594 C 166.722656 165.257812 168.574219 158.230469 172.285156 153.347656 C 175.988281 148.46875 181.351562 146.023438 188.371094 146.023438 C 195.386719 146.023438 200.75 148.46875 204.460938 153.347656 " fill-opacity="1" fill-rule="nonzero"/></g><g clip-path="url(#87ca92f01c)"><path fill="#0a0a0a" d="M 253.824219 189.804688 L 253.824219 201.554688 L 240.75 201.554688 L 240.667969 189.804688 L 216.472656 189.804688 L 216.472656 181.355469 L 232.773438 145.785156 L 244.148438 149.808594 L 230.308594 180.308594 L 240.835938 180.308594 L 242.277344 167.433594 L 253.824219 167.433594 L 253.824219 180.308594 L 260.277344 180.308594 L 260.277344 189.804688 L 253.824219 189.804688 " fill-opacity="1" fill-rule="nonzero"/></g><g clip-path="url(#45a65aa1ef)"><path fill="#0a0a0a" d="M 125.460938 228.59375 L 119.890625 214.410156 C 120.078125 215.804688 120.21875 217.03125 120.324219 218.097656 C 120.425781 219.160156 120.476562 220.421875 120.476562 221.886719 L 120.476562 228.59375 L 116.410156 228.59375 L 116.410156 210.292969 L 122.089844 210.292969 L 127.800781 224.5 C 127.394531 222.085938 127.1875 219.816406 127.1875 217.6875 L 127.1875 210.292969 L 131.285156 210.292969 L 131.285156 228.59375 L 125.460938 228.59375 " fill-opacity="1" fill-rule="nonzero"/></g><g clip-path="url(#56714a6540)"><path fill="#0a0a0a" d="M 140.042969 214.53125 C 139.402344 215.542969 139.085938 217.175781 139.085938 219.429688 C 139.085938 221.683594 139.410156 223.320312 140.058594 224.339844 C 140.707031 225.363281 141.683594 225.875 142.984375 225.875 C 144.320312 225.875 145.308594 225.367188 145.949219 224.355469 C 146.589844 223.34375 146.910156 221.699219 146.910156 219.429688 C 146.910156 217.160156 146.585938 215.523438 145.9375 214.519531 C 145.285156 213.515625 144.300781 213.011719 142.984375 213.011719 C 141.664062 213.011719 140.683594 213.519531 140.042969 214.53125 Z M 149.402344 212.351562 C 150.9375 214.027344 151.703125 216.382812 151.703125 219.429688 C 151.703125 221.417969 151.355469 223.136719 150.65625 224.578125 C 149.960938 226.023438 148.957031 227.125 147.648438 227.890625 C 146.339844 228.660156 144.785156 229.042969 142.984375 229.042969 C 141.183594 229.042969 139.632812 228.664062 138.332031 227.90625 C 137.03125 227.148438 136.035156 226.054688 135.335938 224.617188 C 134.640625 223.183594 134.292969 221.453125 134.292969 219.429688 C 134.292969 217.457031 134.640625 215.75 135.335938 214.304688 C 136.035156 212.863281 137.03125 211.757812 138.332031 210.992188 C 139.632812 210.226562 141.183594 209.84375 142.984375 209.84375 C 145.730469 209.84375 147.871094 210.679688 149.402344 212.351562 " fill-opacity="1" fill-rule="nonzero"/></g><g clip-path="url(#df7333375d)"><path fill="#0a0a0a" d="M 162.175781 213.621094 L 162.175781 228.59375 L 157.609375 228.59375 L 157.609375 213.621094 L 152.621094 213.621094 L 152.621094 210.292969 L 167.386719 210.292969 L 166.9375 213.621094 L 162.175781 213.621094 " fill-opacity="1" fill-rule="nonzero"/></g><g clip-path="url(#61823cde97)"><path fill="#0a0a0a" d="M 181.007812 213.382812 L 181.007812 218.242188 L 186.632812 218.242188 L 186.632812 221.332031 L 181.007812 221.332031 L 181.007812 228.59375 L 176.4375 228.59375 L 176.4375 210.292969 L 187.941406 210.292969 L 187.46875 213.382812 L 181.007812 213.382812 " fill-opacity="1" fill-rule="nonzero"/></g><g clip-path="url(#b4f484073c)"><path fill="#0a0a0a" d="M 195.167969 214.53125 C 194.527344 215.542969 194.210938 217.175781 194.210938 219.429688 C 194.210938 221.683594 194.535156 223.320312 195.183594 224.339844 C 195.835938 225.363281 196.808594 225.875 198.109375 225.875 C 199.445312 225.875 200.433594 225.367188 201.074219 224.355469 C 201.71875 223.34375 202.039062 221.699219 202.039062 219.429688 C 202.039062 217.160156 201.710938 215.523438 201.0625 214.519531 C 200.414062 213.515625 199.429688 213.011719 198.109375 213.011719 C 196.789062 213.011719 195.8125 213.519531 195.167969 214.53125 Z M 204.53125 212.351562 C 206.0625 214.027344 206.828125 216.382812 206.828125 219.429688 C 206.828125 221.417969 206.480469 223.136719 205.785156 224.578125 C 205.089844 226.023438 204.085938 227.125 202.773438 227.890625 C 201.464844 228.660156 199.910156 229.042969 198.109375 229.042969 C 196.308594 229.042969 194.757812 228.664062 193.457031 227.90625 C 192.15625 227.148438 191.160156 226.054688 190.464844 224.617188 C 189.765625 223.183594 189.417969 221.453125 189.417969 219.429688 C 189.417969 217.457031 189.765625 215.75 190.464844 214.304688 C 191.160156 212.863281 192.15625 211.757812 193.457031 210.992188 C 194.757812 210.226562 196.308594 209.84375 198.109375 209.84375 C 200.859375 209.84375 203 210.679688 204.53125 212.351562 " fill-opacity="1" fill-rule="nonzero"/></g><g clip-path="url(#610e5444e9)"><path fill="#0a0a0a" d="M 223.804688 225.875 C 223.238281 226.859375 222.390625 227.632812 221.257812 228.199219 C 220.125 228.757812 218.742188 229.042969 217.105469 229.042969 C 214.65625 229.042969 212.789062 228.453125 211.507812 227.273438 C 210.226562 226.09375 209.585938 224.507812 209.585938 222.519531 L 209.585938 210.292969 L 214.15625 210.292969 L 214.15625 222.332031 C 214.15625 223.511719 214.390625 224.390625 214.863281 224.960938 C 215.339844 225.535156 216.085938 225.820312 217.105469 225.820312 C 218.144531 225.820312 218.902344 225.535156 219.378906 224.960938 C 219.851562 224.390625 220.085938 223.511719 220.085938 222.332031 L 220.085938 210.292969 L 224.65625 210.292969 L 224.65625 222.519531 C 224.65625 223.769531 224.371094 224.886719 223.804688 225.875 " fill-opacity="1" fill-rule="nonzero"/></g><g clip-path="url(#e15e5d1dd9)"><path fill="#0a0a0a" d="M 237.359375 228.59375 L 231.785156 214.410156 C 231.972656 215.804688 232.117188 217.03125 232.21875 218.097656 C 232.320312 219.160156 232.371094 220.421875 232.371094 221.886719 L 232.371094 228.59375 L 228.304688 228.59375 L 228.304688 210.292969 L 233.988281 210.292969 L 239.699219 224.5 C 239.289062 222.085938 239.085938 219.816406 239.085938 217.6875 L 239.085938 210.292969 L 243.179688 210.292969 L 243.179688 228.59375 L 237.359375 228.59375 " fill-opacity="1" fill-rule="nonzero"/></g><g clip-path="url(#46a112fdf4)"><path fill="#0a0a0a" d="M 251.648438 225.449219 L 253.152344 225.449219 C 254.65625 225.449219 255.796875 225.003906 256.578125 224.117188 C 257.359375 223.226562 257.746094 221.640625 257.746094 219.351562 C 257.746094 217.785156 257.550781 216.570312 257.164062 215.707031 C 256.773438 214.84375 256.242188 214.25 255.574219 213.925781 C 254.90625 213.597656 254.082031 213.433594 253.097656 213.433594 L 251.648438 213.433594 Z M 259.738281 212.234375 C 261.566406 213.527344 262.484375 215.898438 262.484375 219.351562 C 262.484375 222.75 261.59375 225.136719 259.808594 226.519531 C 258.027344 227.902344 255.714844 228.59375 252.875 228.59375 L 247.078125 228.59375 L 247.078125 210.292969 L 252.453125 210.292969 C 255.480469 210.292969 257.910156 210.941406 259.738281 212.234375 " fill-opacity="1" fill-rule="nonzero"/></g><path fill="#000000" d="M 142.800781 88.199219 C 142.800781 88.199219 47.707031 242.640625 47.707031 242.640625 C 22.457031 283.644531 51.957031 336.453125 100.113281 336.453125 C 100.113281 336.453125 290.304688 336.453125 290.304688 336.453125 C 338.460938 336.453125 367.960938 283.644531 342.710938 242.640625 C 342.710938 242.640625 247.617188 88.199219 247.617188 88.199219 C 223.582031 49.164062 166.835938 49.164062 142.800781 88.199219 Z M 142.800781 88.199219 " fill-opacity="1" fill-rule="nonzero"/><path fill="#ffb901" d="M 135.09375 80.488281 C 135.09375 80.488281 39.996094 234.929688 39.996094 234.929688 C 14.746094 275.9375 44.25 328.746094 92.402344 328.746094 C 92.402344 328.746094 282.597656 328.746094 282.597656 328.746094 C 330.75 328.746094 360.25 275.9375 335.003906 234.929688 C 335.003906 234.929688 239.90625 80.488281 239.90625 80.488281 C 215.871094 41.453125 159.128906 41.453125 135.09375 80.488281 Z M 135.09375 80.488281 " fill-opacity="1" fill-rule="nonzero"/><g clip-path="url(#3ef7ef9e88)"><path stroke-linecap="butt" transform="matrix(0.256974, 0, 0, 0.256974, 187.499918, 185.099196)" fill="none" stroke-linejoin="miter" d="M -203.935474 -407.08713 C -203.935474 -407.08713 -574.002327 193.912384 -574.002327 193.912384 C -672.261195 353.491839 -557.448505 558.993329 -370.066533 558.993329 C -370.066533 558.993329 370.067173 558.993329 370.067173 558.993329 C 557.449144 558.993329 672.246634 353.491839 574.002967 193.912384 C 574.002967 193.912384 203.936114 -407.08713 203.936114 -407.08713 C 110.404738 -558.99011 -110.404098 -558.99011 -203.935474 -407.08713 Z M -203.935474 -407.08713 " stroke="#000000" stroke-width="10" stroke-opacity="1" stroke-miterlimit="10"/></g><path stroke-linecap="butt" transform="matrix(0.256974, 0, 0, 0.256974, 187.499642, 189.978621)" fill="none" stroke-linejoin="miter" d="M -370.065459 440.211174 C -396.6367 440.211174 -421.09501 433.492359 -442.741147 420.267542 C -463.064802 407.833175 -480.105054 389.987273 -492.02259 368.629954 C -503.955327 347.287836 -510.218114 323.407161 -510.142109 299.58729 C -510.066105 274.232124 -502.967266 249.88022 -489.028005 227.246023 C -489.028005 227.246023 -118.961152 -373.753491 -118.961152 -373.753491 C -105.675532 -395.323623 -88.072845 -412.105459 -66.639521 -423.627771 C -46.467876 -434.481241 -23.423253 -440.211995 0.00139396 -440.211995 C 23.426041 -440.211995 46.470664 -434.481241 66.642309 -423.627771 C 88.075633 -412.105459 105.67832 -395.323623 118.96394 -373.753491 C 118.96394 -373.753491 489.030793 227.246023 489.030793 227.246023 C 502.970054 249.88022 510.068892 274.232124 510.144897 299.58729 C 510.220902 323.407161 503.958115 347.287836 492.025378 368.629954 C 480.107842 389.987273 463.052389 407.833175 442.743935 420.267542 C 421.097798 433.492359 396.639488 440.211174 370.068247 440.211174 C 370.068247 440.211174 -370.065459 440.211174 -370.065459 440.211174 Z M -370.065459 440.211174 " stroke="#000000" stroke-width="10" stroke-opacity="1" stroke-miterlimit="10"/><path fill="#000000" d="M 166.148438 146.949219 C 166.148438 146.949219 208.851562 146.949219 208.851562 146.949219 C 208.851562 146.949219 199.421875 229.90625 199.421875 229.90625 C 199.421875 229.90625 174.699219 229.90625 174.699219 229.90625 C 174.699219 229.90625 166.148438 146.949219 166.148438 146.949219 Z M 174.699219 241.011719 C 174.699219 241.011719 199.421875 241.011719 199.421875 241.011719 C 199.421875 241.011719 199.421875 266.457031 199.421875 266.457031 C 199.421875 266.457031 174.699219 266.457031 174.699219 266.457031 C 174.699219 266.457031 174.699219 241.011719 174.699219 241.011719 Z M 174.699219 241.011719 " fill-opacity="1" fill-rule="nonzero"/></svg>