<svg xmlns="http://www.w3.org/2000/svg" xmlns:xlink="http://www.w3.org/1999/xlink" width="500" zoomAndPan="magnify" viewBox="0 0 375 374.999991" height="500" preserveAspectRatio="xMidYMid meet" version="1.0"><defs><g/><clipPath id="99ae9331b3"><path d="M 54.042969 41.316406 L 344.566406 41.316406 L 344.566406 333.289062 L 54.042969 333.289062 Z M 54.042969 41.316406 " clip-rule="nonzero"/></clipPath></defs><g clip-path="url(#99ae9331b3)"><path fill="#ffffff" d="M 246.640625 41.542969 L 246.640625 45.589844 L 263.320312 45.589844 C 272.898438 45.589844 280.300781 47.761719 285.433594 52.203125 C 290.566406 56.644531 293.234375 63.753906 293.234375 73.824219 L 293.234375 271.257812 L 140.714844 41.542969 L 54.042969 41.542969 L 54.042969 45.589844 L 69.539062 45.589844 C 79.117188 45.589844 86.519531 47.761719 91.851562 52.007812 C 97.179688 56.25 99.847656 63.0625 99.847656 72.636719 L 99.847656 82.015625 L 103.894531 82.015625 L 103.894531 65.628906 L 281.78125 333.449219 L 297.28125 333.449219 L 297.28125 74.21875 C 297.28125 63.851562 299.945312 56.546875 305.277344 52.203125 C 310.609375 47.859375 318.011719 45.589844 327.585938 45.589844 L 344.269531 45.589844 L 344.269531 41.542969 Z M 111.691406 322.785156 C 106.558594 318.441406 103.894531 311.136719 103.894531 300.773438 L 99.847656 300.773438 C 99.847656 311.136719 97.179688 318.441406 91.851562 322.785156 C 86.519531 327.128906 79.117188 329.300781 69.539062 329.300781 L 54.042969 329.300781 L 54.042969 333.449219 L 152.167969 333.449219 L 152.167969 329.300781 L 133.804688 329.300781 C 124.230469 329.300781 116.824219 327.128906 111.691406 322.785156 Z M 111.691406 322.785156 " fill-opacity="1" fill-rule="nonzero"/></g><g fill="#ffffff" fill-opacity="1"><g transform="translate(113.057753, 281.330573)"><g><path d="M -9.5 -59.734375 C -9.5 -59.609375 -9.484375 -59.546875 -9.453125 -59.453125 C -9.453125 -59.453125 -9.453125 -59.421875 -9.453125 -59.40625 L -8.453125 -57.15625 C -8.21875 -56.6875 -8.015625 -56.203125 -7.78125 -55.6875 C -5.546875 -50.8125 -2.828125 -44.8125 -2.828125 -41.625 C -2.828125 -39.78125 -3.515625 -38.890625 -4.921875 -38.890625 C -9.484375 -38.890625 -15.296875 -44.796875 -20.578125 -50.125 C -24.625 -54.25 -28.46875 -58.15625 -31.078125 -58.15625 C -32.484375 -58.15625 -33.34375 -57.15625 -33.34375 -55.546875 C -33.34375 -49.3125 -20.625 -33.453125 -9.59375 -22.0625 C -9.34375 -21.78125 -9.078125 -21.515625 -8.828125 -21.265625 C -9.0625 -21.46875 -9.34375 -21.6875 -9.59375 -21.921875 C -12.921875 -24.71875 -15.96875 -27.515625 -18.6875 -30.046875 C -23.953125 -34.953125 -28.1875 -38.890625 -30.9375 -38.890625 C -32.734375 -38.890625 -33.578125 -37.703125 -33.578125 -35.21875 C -33.578125 -29.953125 -29.53125 -19.828125 -23.234375 -14.28125 C -23.109375 -14.140625 -22.875 -14.078125 -22.671875 -14.078125 C -22.21875 -14.078125 -21.828125 -14.46875 -21.828125 -14.921875 C -21.828125 -15.171875 -21.921875 -15.40625 -22.125 -15.578125 C -28.125 -20.8125 -31.890625 -30.28125 -31.890625 -35.21875 C -31.890625 -36.8125 -31.65625 -37.203125 -30.9375 -37.203125 C -28.875 -37.203125 -25.125 -33.734375 -19.828125 -28.828125 C -14.46875 -23.84375 -7.6875 -17.53125 0.109375 -12.671875 C 0.53125 -12.390625 0.953125 -12.453125 1.28125 -12.90625 L 1.3125 -12.953125 C 1.59375 -13.328125 1.546875 -13.75 1.171875 -14.09375 C -9.875 -23.4375 -31.65625 -47.953125 -31.65625 -55.546875 C -31.65625 -56.25 -31.5 -56.484375 -31.078125 -56.484375 C -29.171875 -56.484375 -25.828125 -53.078125 -21.78125 -48.96875 C -16.484375 -43.59375 -10.15625 -37.203125 -4.921875 -37.203125 C -2.578125 -37.203125 -1.140625 -38.875 -1.140625 -41.625 C -1.140625 -45.171875 -4.03125 -51.484375 -6.25 -56.359375 C -6.390625 -56.71875 -6.5625 -57.046875 -6.703125 -57.359375 C -7.140625 -58.34375 -7.5625 -59.265625 -7.890625 -60.0625 C -8.03125 -60.359375 -8.328125 -60.578125 -8.65625 -60.578125 C -9.109375 -60.578125 -9.5 -60.171875 -9.5 -59.734375 Z M -9.5 -59.734375 "/></g></g></g><g fill="#ffffff" fill-opacity="1"><g transform="translate(113.057753, 224.013105)"><g><path d="M -9.5 -25.3125 C -9.5 -25.140625 -9.453125 -25 -9.359375 -24.890625 C -6.578125 -19.953125 -6.9375 -12.6875 -10.203125 -7 C -10.203125 -7 -10.234375 -7.03125 -10.234375 -7.046875 C -10.28125 -7.140625 -10.296875 -7.234375 -10.328125 -7.328125 C -10.4375 -7.6875 -10.765625 -7.921875 -11.140625 -7.921875 C -11.59375 -7.921875 -11.984375 -7.515625 -11.984375 -7.078125 C -11.984375 -7 -11.96875 -6.890625 -11.9375 -6.796875 C -11.75 -6.25 -11.5625 -5.734375 -11.328125 -5.265625 C -11.3125 -5.21875 -11.3125 -5.171875 -11.328125 -5.078125 C -11.46875 -4.515625 -11.171875 -3.90625 -10.609375 -3.75 C -10.53125 -3.703125 -10.515625 -3.671875 -10.46875 -3.625 C -8.15625 0.234375 -4.515625 2.90625 -1.5625 2.90625 C 0.046875 2.90625 1.125 2.015625 1.125 0.65625 C 1.125 -2.734375 -4.609375 -6.25 -9.015625 -5.671875 C -5.203125 -11.9375 -4.734375 -20.140625 -7.921875 -25.703125 C -8.078125 -25.984375 -8.359375 -26.15625 -8.65625 -26.15625 C -9.109375 -26.15625 -9.5 -25.75 -9.5 -25.3125 Z M -0.5625 0.65625 C -0.5625 1.03125 -0.859375 1.21875 -1.5625 1.21875 C -3.796875 1.21875 -6.71875 -0.90625 -8.734375 -4 C -5.359375 -4.375 -0.5625 -1.640625 -0.5625 0.65625 Z M -0.5625 0.65625 "/></g></g></g><g fill="#ffffff" fill-opacity="1"><g transform="translate(113.057753, 201.090795)"><g><path d="M -24.71875 -43.109375 C -25.078125 -34.53125 -25.046875 -25.65625 -24.75 -17 C -31.28125 -22.640625 -37.609375 -28.3125 -43.640625 -33.828125 C -43.78125 -34 -44 -34.0625 -44.203125 -34.0625 C -44.671875 -34.0625 -45.046875 -33.6875 -45.046875 -33.21875 C -45.046875 -32.984375 -44.953125 -32.75 -44.765625 -32.625 C -37.984375 -26.34375 -31.265625 -20.375 -24.65625 -14.703125 C -24.265625 -5.296875 -23.515625 3.90625 -22.453125 12.203125 C -22.40625 12.625 -22.03125 12.953125 -21.609375 12.953125 C -21.140625 12.953125 -20.765625 12.578125 -20.765625 12.109375 L -20.765625 11.984375 C -21.78125 4.234375 -22.5 -4.359375 -22.90625 -13.234375 C -7.375 -0.046875 9.125 12.71875 25.03125 22.765625 C 25.3125 22.953125 25.609375 23.109375 25.875 23.203125 L 25.890625 23.203125 C 26.671875 23.46875 27.15625 23.15625 27.15625 22.40625 C 27.15625 21.875 26.53125 21.1875 25.359375 20.484375 C 25 20.296875 24.671875 20.25 24.46875 20.390625 C 8.6875 10.28125 -7.65625 -2.4375 -23 -15.53125 C -23.390625 -24.859375 -23.390625 -34.234375 -23.046875 -43.03125 L -23.046875 -43.078125 C -23.046875 -43.546875 -23.421875 -43.921875 -23.890625 -43.921875 C -24.328125 -43.921875 -24.703125 -43.578125 -24.71875 -43.109375 Z M -24.71875 -43.109375 "/></g></g></g><g fill="#ffffff" fill-opacity="1"><g transform="translate(113.057753, 185.262943)"><g><path d="M -9.5 -24.171875 C -9.5 -23.984375 -9.453125 -23.8125 -9.34375 -23.671875 C -4.03125 -16.390625 -1.140625 -6.578125 -1.140625 -3.53125 C -1.140625 -1.171875 -1.78125 0 -2.953125 0 C -4.09375 0 -5.71875 -0.84375 -7.265625 -2.25 C -6.953125 -2.953125 -6.84375 -3.71875 -6.84375 -4.84375 C -6.84375 -7 -8.5625 -9.484375 -10.109375 -9.484375 C -11.234375 -9.484375 -11.984375 -8.609375 -11.984375 -7.3125 C -11.984375 -3.65625 -6.625 1.6875 -2.953125 1.6875 C -0.71875 1.6875 0.53125 -0.203125 0.53125 -3.53125 C 0.53125 -6.8125 -2.484375 -17.140625 -7.984375 -24.65625 C -8.125 -24.859375 -8.40625 -25 -8.65625 -25 C -9.125 -25 -9.5 -24.625 -9.5 -24.171875 Z M -10.109375 -7.796875 C -9.59375 -7.796875 -8.515625 -6.609375 -8.515625 -4.84375 C -8.515625 -4.359375 -8.546875 -3.984375 -8.59375 -3.65625 C -9.671875 -4.984375 -10.296875 -6.328125 -10.296875 -7.3125 C -10.296875 -7.734375 -10.234375 -7.796875 -10.109375 -7.796875 Z M -10.109375 -7.796875 "/></g></g></g><g fill="#ffffff" fill-opacity="1"><g transform="translate(113.057753, 163.487922)"><g><path d="M 6.578125 -0.25 C 6.578125 -0.609375 6.375 -0.90625 6.0625 -1.03125 C 5.671875 -1.21875 5.171875 -1.46875 4.546875 -1.828125 C 4.375 -1.921875 4.328125 -2.015625 4.3125 -2.203125 C 4.234375 -3.109375 4.21875 -3.9375 4.21875 -4.609375 C 4.21875 -7.21875 4.421875 -8.984375 4.796875 -9.78125 C 4.875 -9.90625 4.890625 -10.046875 4.890625 -10.15625 C 4.890625 -10.625 4.515625 -11 4.046875 -11 C 3.71875 -11 3.421875 -10.8125 3.28125 -10.515625 C 2.78125 -9.453125 2.53125 -7.46875 2.53125 -4.609375 C 2.53125 -4.21875 2.53125 -3.765625 2.546875 -3.25 C 2.578125 -3.046875 2.53125 -3.046875 2.359375 -3.140625 C -5.40625 -8.109375 -21.28125 -19.96875 -31.75 -29.453125 C -31.921875 -29.59375 -31.9375 -29.671875 -31.921875 -29.875 C -31.6875 -31.59375 -31.265625 -33.484375 -30.75 -35.359375 C -30.71875 -35.453125 -30.703125 -35.515625 -30.703125 -35.609375 C -30.703125 -36.078125 -31.078125 -36.453125 -31.546875 -36.453125 C -31.921875 -36.453125 -32.265625 -36.203125 -32.359375 -35.828125 C -32.75 -34.375 -33.109375 -32.828125 -33.40625 -31.265625 C -33.4375 -31.078125 -33.453125 -31.046875 -33.59375 -31.171875 L -34.53125 -32.0625 C -34.703125 -32.203125 -34.90625 -32.296875 -35.125 -32.296875 C -35.59375 -32.296875 -35.96875 -31.921875 -35.96875 -31.453125 C -35.96875 -31.21875 -35.875 -31 -35.703125 -30.84375 C -35.46875 -30.625 -35.265625 -30.421875 -35.046875 -30.203125 C -34.671875 -29.859375 -34.296875 -29.5 -33.90625 -29.15625 C -33.765625 -29.03125 -33.71875 -28.921875 -33.734375 -28.734375 C -33.859375 -27.578125 -33.921875 -26.546875 -33.921875 -25.640625 C -33.921875 -22.390625 -33.625 -19.546875 -33.171875 -18.59375 C -33.03125 -18.3125 -32.734375 -18.09375 -32.40625 -18.09375 C -31.9375 -18.09375 -31.5625 -18.46875 -31.5625 -18.9375 C -31.5625 -19.0625 -31.59375 -19.203125 -31.65625 -19.3125 C -31.984375 -20.015625 -32.25 -22.734375 -32.25 -25.640625 C -32.25 -26.15625 -32.21875 -26.71875 -32.171875 -27.296875 C -32.15625 -27.53125 -32.125 -27.53125 -31.984375 -27.390625 C -20.984375 -17.5625 -4.796875 -5.578125 2.53125 -1.046875 C 2.6875 -0.984375 2.734375 -0.890625 2.765625 -0.703125 C 3 1.65625 3.421875 4.40625 4.09375 6.71875 C 4.1875 7.09375 4.546875 7.359375 4.921875 7.359375 C 5.390625 7.359375 5.765625 6.984375 5.765625 6.515625 C 5.765625 6.421875 5.734375 6.34375 5.71875 6.25 C 5.265625 4.640625 4.875 2.625 4.5625 0.328125 C 4.546875 0.140625 4.5625 0.109375 4.75 0.203125 L 5.390625 0.515625 C 5.5 0.5625 5.625 0.578125 5.734375 0.578125 C 6.203125 0.578125 6.578125 0.203125 6.578125 -0.25 Z M 6.578125 -0.25 "/></g></g></g><g fill="#ffffff" fill-opacity="1"><g transform="translate(113.057753, 140.237833)"><g><path d="M -24.71875 -43.109375 C -25.078125 -34.53125 -25.046875 -25.65625 -24.75 -17 C -31.28125 -22.640625 -37.609375 -28.3125 -43.640625 -33.828125 C -43.78125 -34 -44 -34.0625 -44.203125 -34.0625 C -44.671875 -34.0625 -45.046875 -33.6875 -45.046875 -33.21875 C -45.046875 -32.984375 -44.953125 -32.75 -44.765625 -32.625 C -37.984375 -26.34375 -31.265625 -20.375 -24.65625 -14.703125 C -24.265625 -5.296875 -23.515625 3.90625 -22.453125 12.203125 C -22.40625 12.625 -22.03125 12.953125 -21.609375 12.953125 C -21.140625 12.953125 -20.765625 12.578125 -20.765625 12.109375 L -20.765625 11.984375 C -21.78125 4.234375 -22.5 -4.359375 -22.90625 -13.234375 C -7.375 -0.046875 9.125 12.71875 25.03125 22.765625 C 25.3125 22.953125 25.609375 23.109375 25.875 23.203125 L 25.890625 23.203125 C 26.671875 23.46875 27.15625 23.15625 27.15625 22.40625 C 27.15625 21.875 26.53125 21.1875 25.359375 20.484375 C 25 20.296875 24.671875 20.25 24.46875 20.390625 C 8.6875 10.28125 -7.65625 -2.4375 -23 -15.53125 C -23.390625 -24.859375 -23.390625 -34.234375 -23.046875 -43.03125 L -23.046875 -43.078125 C -23.046875 -43.546875 -23.421875 -43.921875 -23.890625 -43.921875 C -24.328125 -43.921875 -24.703125 -43.578125 -24.71875 -43.109375 Z M -24.71875 -43.109375 "/></g></g></g></svg>