<svg xmlns="http://www.w3.org/2000/svg" width="500" height="500" version="1.0" viewBox="0 0 375 375"><defs><clipPath id="a"><path d="M54.043 41.316h290.523V333.29H54.043Zm0 0"/></clipPath></defs><g clip-path="url(#a)"><path fill="#141415" d="M246.64 41.543v4.047h16.68c9.578 0 16.98 2.172 22.114 6.613 5.132 4.442 7.8 11.55 7.8 21.621v197.434L140.714 41.543h-86.67v4.047H69.54c9.578 0 16.98 2.172 22.313 6.418 5.328 4.242 7.996 11.054 7.996 20.629v9.379h4.047V65.629l177.886 267.82h15.5V74.22c0-10.367 2.664-17.672 7.996-22.016s12.735-6.613 22.309-6.613h16.684v-4.047ZM111.692 322.785c-5.132-4.344-7.796-11.648-7.796-22.012h-4.047c0 10.364-2.668 17.668-7.996 22.012-5.332 4.344-12.735 6.516-22.313 6.516H54.043v4.148h98.125v-4.148h-18.363c-9.575 0-16.98-2.172-22.114-6.516m0 0"/></g><path fill="#141415" d="M103.558 221.596c0 .125.015.188.047.281v.047l1 2.25c.234.47.437.953.672 1.47 2.234 4.874 4.953 10.874 4.953 14.062 0 1.843-.688 2.734-2.094 2.734-4.563 0-10.375-5.906-15.656-11.234-4.047-4.125-7.891-8.032-10.5-8.032-1.407 0-2.266 1-2.266 2.61 0 6.234 12.719 22.093 23.75 33.484.25.281.516.547.766.797-.235-.203-.516-.422-.766-.656-3.328-2.797-6.375-5.594-9.094-8.125-5.265-4.907-9.5-8.844-12.25-8.844-1.797 0-2.64 1.187-2.64 3.672 0 5.265 4.047 15.39 10.343 20.937.125.14.36.203.563.203a.86.86 0 0 0 .844-.843.84.84 0 0 0-.297-.657c-6-5.234-9.766-14.703-9.766-19.64 0-1.594.235-1.985.953-1.985 2.063 0 5.813 3.47 11.11 8.375 5.359 4.985 12.14 11.297 19.937 16.157.422.28.844.218 1.172-.235l.031-.047c.282-.375.235-.796-.14-1.14-11.047-9.344-32.828-33.86-32.828-41.453 0-.703.156-.938.578-.938 1.906 0 5.25 3.406 9.297 7.516 5.296 5.375 11.625 11.765 16.859 11.765 2.344 0 3.781-1.671 3.781-4.421 0-3.547-2.89-9.86-5.11-14.735-.14-.36-.312-.687-.452-1-.438-.984-.86-1.906-1.188-2.703-.14-.297-.437-.516-.765-.516-.454 0-.844.407-.844.844m0 0"/><path fill="#141415" d="M103.558 198.7q0 .258.14.422c2.782 4.938 2.422 12.204-.843 17.891 0 0-.032-.031-.032-.047-.046-.094-.062-.187-.093-.281a.84.84 0 0 0-.813-.594c-.453 0-.844.406-.844.844a1 1 0 0 0 .047.281c.188.547.375 1.063.61 1.531a.4.4 0 0 1 0 .188c-.141.562.156 1.172.718 1.328.079.047.094.078.141.125 2.313 3.86 5.953 6.531 8.906 6.531 1.61 0 2.688-.89 2.688-2.25 0-3.39-5.735-6.906-10.14-6.328 3.812-6.265 4.28-14.469 1.093-20.031a.85.85 0 0 0-.734-.453c-.454 0-.844.406-.844.844m8.937 25.97c0 .374-.297.562-1 .562-2.234 0-5.156-2.125-7.172-5.219 3.375-.375 8.172 2.36 8.172 4.656m0 0"/><path fill="#141415" d="M88.339 157.981c-.36 8.579-.328 17.454-.031 26.11-6.531-5.64-12.86-11.313-18.89-16.828-.141-.172-.36-.235-.563-.235a.84.84 0 0 0-.844.844c0 .234.094.469.281.594a710 710 0 0 0 20.11 17.922c.39 9.406 1.14 18.609 2.203 26.906.047.422.422.75.843.75a.84.84 0 0 0 .844-.844v-.125c-1.015-7.75-1.734-16.344-2.14-25.219 15.53 13.188 32.03 25.954 47.937 36 .281.188.578.344.844.438h.015c.782.266 1.266-.047 1.266-.797 0-.531-.625-1.219-1.797-1.922-.36-.187-.687-.234-.89-.094-15.782-10.109-32.125-22.828-47.47-35.921-.39-9.329-.39-18.704-.046-27.5v-.047a.84.84 0 0 0-.844-.844.83.83 0 0 0-.828.812m0 0"/><path fill="#141415" d="M103.558 161.091c0 .188.047.36.156.5 5.313 7.281 8.203 17.094 8.203 20.14 0 2.36-.64 3.532-1.812 3.532-1.141 0-2.766-.844-4.313-2.25.313-.703.422-1.469.422-2.594 0-2.156-1.719-4.64-3.266-4.64-1.125 0-1.875.875-1.875 2.171 0 3.657 5.36 9 9.032 9 2.234 0 3.484-1.89 3.484-5.218 0-3.282-3.016-13.61-8.516-21.125a.837.837 0 0 0-1.516.484m-.61 16.375c.516 0 1.594 1.188 1.594 2.953 0 .485-.031.86-.078 1.188-1.078-1.328-1.703-2.672-1.703-3.657 0-.421.062-.484.187-.484m0 0"/><path fill="#141415" d="M119.636 163.238a.82.82 0 0 0-.516-.781c-.39-.188-.89-.438-1.515-.797-.172-.094-.22-.188-.235-.375a28 28 0 0 1-.093-2.406c0-2.61.203-4.375.578-5.172a.7.7 0 0 0 .093-.375.845.845 0 0 0-1.61-.36c-.499 1.063-.749 3.047-.749 5.907 0 .39 0 .843.016 1.359.03.203-.016.203-.188.11-7.765-4.97-23.64-16.829-34.11-26.313-.171-.14-.187-.219-.171-.422.234-1.719.656-3.61 1.172-5.484a.7.7 0 0 0 .047-.25.84.84 0 0 0-.844-.844.835.835 0 0 0-.813.625c-.39 1.453-.75 3-1.046 4.562-.032.188-.047.219-.188.094l-.937-.89a.95.95 0 0 0-.594-.235.84.84 0 0 0-.578 1.453c.234.219.437.422.656.64.375.345.75.704 1.14 1.048.141.125.188.234.172.422a29 29 0 0 0-.187 3.093c0 3.25.297 6.094.75 7.047.14.281.437.5.766.5a.84.84 0 0 0 .843-.844.8.8 0 0 0-.093-.375c-.329-.703-.594-3.421-.594-6.328 0-.515.031-1.078.078-1.656.016-.234.047-.234.187-.094 11 9.828 27.188 21.813 34.516 26.344.156.063.203.156.234.344.235 2.36.657 5.11 1.329 7.422.093.375.453.64.828.64a.84.84 0 0 0 .843-.843c0-.094-.03-.172-.046-.266-.454-1.61-.844-3.625-1.157-5.922-.015-.187 0-.219.188-.125l.64.313a.9.9 0 0 0 .344.062.837.837 0 0 0 .844-.828m0 0"/><path fill="#141415" d="M88.339 97.128c-.36 8.579-.328 17.454-.031 26.11-6.531-5.64-12.86-11.313-18.89-16.828-.141-.172-.36-.235-.563-.235a.84.84 0 0 0-.844.844c0 .234.094.469.281.594a710 710 0 0 0 20.11 17.922c.39 9.406 1.14 18.61 2.203 26.906.047.422.422.75.843.75a.84.84 0 0 0 .844-.844v-.125c-1.015-7.75-1.734-16.344-2.14-25.219 15.53 13.188 32.03 25.954 47.937 36 .281.188.578.344.844.438h.015c.782.266 1.266-.047 1.266-.797 0-.531-.625-1.219-1.797-1.922-.36-.187-.687-.234-.89-.094-15.782-10.109-32.125-22.828-47.47-35.921-.39-9.329-.39-18.704-.046-27.5v-.047a.84.84 0 0 0-.844-.844.83.83 0 0 0-.828.812m0 0"/></svg>